<?xml version="1.0" standalone="no"?>
<!DOCTYPE svg PUBLIC "-//W3C//DTD SVG 20010904//EN"
 "http://www.w3.org/TR/2001/REC-SVG-20010904/DTD/svg10.dtd">
<svg version="1.0" xmlns="http://www.w3.org/2000/svg"
 width="256.000000pt" height="256.000000pt" viewBox="0 0 256.000000 256.000000"
 preserveAspectRatio="xMidYMid meet">
<metadata>
Created by potrace 1.14, written by Peter Selinger 2001-2017
</metadata>
<g transform="translate(0.000000,256.000000) scale(0.100000,-0.100000)"
fill="#000000" stroke="none">
<path d="M1062 2194 c-47 -12 -98 -45 -122 -78 -8 -12 -26 -33 -41 -48 -15
-16 -24 -28 -21 -28 4 -1 -3 -9 -15 -19 -13 -11 -28 -30 -33 -43 -10 -22 -10
-22 -7 5 4 28 -2 31 -40 21 -18 -5 -23 -14 -23 -40 0 -27 4 -34 20 -34 25 0
25 -2 -5 -50 -14 -22 -25 -45 -25 -51 0 -8 -5 -8 -15 1 -18 15 -19 15 -33 -28
-10 -30 -10 -33 7 -27 16 5 19 -4 26 -87 14 -148 13 -172 -3 -196 -12 -19 -14
-43 -8 -129 9 -135 33 -183 93 -183 12 0 24 -15 36 -44 10 -24 33 -61 51 -82
43 -51 49 -70 31 -97 -8 -12 -19 -46 -25 -75 -10 -45 -15 -52 -36 -52 -14 0
-27 -7 -30 -15 -6 -14 -8 -13 -20 2 -13 17 -13 17 -14 -4 0 -12 -4 -25 -10
-28 -6 -4 -9 4 -7 17 2 19 -3 24 -26 26 -28 3 -29 2 -25 -35 3 -36 0 -39 -37
-56 -21 -11 -57 -20 -80 -22 -22 -2 -44 -4 -49 -4 -4 -1 -6 -12 -4 -24 3 -15
0 -24 -8 -24 -7 0 -11 4 -8 8 2 4 -4 10 -13 12 -16 4 -16 5 1 6 15 1 16 4 6
15 -6 8 -18 12 -26 9 -17 -6 -18 -35 -2 -51 9 -9 9 -12 -4 -12 -8 0 -26 -8
-39 -19 -13 -10 -48 -27 -76 -37 -29 -10 -53 -24 -53 -31 0 -12 -24 -18 -60
-14 -9 1 -11 -1 -5 -6 6 -4 11 -16 11 -25 1 -14 -2 -16 -17 -7 -11 5 -19 16
-19 24 0 8 -4 15 -10 15 -5 0 -10 -4 -10 -8 0 -18 127 -162 143 -162 6 0 1 9
-11 20 -23 22 -27 32 -15 43 7 7 35 -47 37 -70 1 -6 15 -21 31 -34 17 -12 27
-19 23 -14 -4 4 -3 14 3 22 9 9 8 13 0 13 -6 0 -11 9 -11 21 0 13 4 18 12 13
7 -5 8 -3 3 6 -4 7 -2 16 6 21 12 8 12 11 -1 18 -12 9 -12 11 2 16 10 4 14 14
10 27 -4 18 -2 19 13 11 20 -12 27 -45 25 -113 -2 -74 -4 -81 -15 -76 -7 2
-12 -2 -12 -10 0 -7 4 -11 9 -8 4 3 8 0 8 -7 0 -11 28 -38 40 -39 3 0 6 8 7
18 7 119 18 208 27 214 7 5 5 8 -5 8 -16 0 -20 33 -6 46 12 13 8 36 -5 28 -10
-5 -10 -4 -1 6 15 16 47 5 36 -12 -12 -20 -15 -58 -4 -58 5 0 12 10 14 22 4
22 4 22 6 -2 1 -14 8 -34 16 -44 22 -29 19 -45 -7 -40 -22 4 -22 4 1 -6 12 -5
21 -16 18 -23 -2 -6 -11 -37 -20 -67 -30 -105 -24 -158 14 -124 10 9 16 20 14
25 -3 4 5 27 18 52 13 24 24 57 25 74 1 32 32 113 44 113 4 0 5 6 2 14 -3 8
-1 17 4 20 16 10 44 -5 38 -20 -3 -8 -1 -14 5 -14 6 0 9 -6 6 -14 -3 -8 0 -20
8 -26 8 -7 12 -26 10 -48 -1 -20 2 -43 7 -49 7 -9 3 -16 -17 -23 -42 -16 -26
-19 33 -8 36 8 51 15 48 24 -3 7 0 15 7 18 9 3 8 8 -3 16 -11 9 -12 13 -2 17
6 2 12 11 12 19 0 9 -4 13 -8 10 -4 -2 -8 4 -8 14 0 15 3 16 14 8 9 -8 16 -8
24 0 9 9 8 12 -5 12 -11 0 -14 5 -10 16 4 11 9 12 16 5 15 -15 23 -14 40 3 12
13 14 10 15 -17 0 -17 8 -34 16 -39 9 -5 16 -14 16 -20 0 -7 -5 -6 -15 2 -19
16 -19 11 2 -31 9 -19 16 -46 14 -61 -1 -15 2 -35 8 -46 6 -11 6 -33 1 -56 -6
-28 -5 -36 4 -33 9 4 12 -5 11 -26 -2 -18 0 -36 4 -42 3 -5 6 -23 6 -40 0 -27
4 -30 34 -33 20 -2 31 0 27 6 -3 6 0 12 6 15 10 3 8 9 -5 24 -9 11 -17 24 -17
29 0 5 4 2 10 -6 17 -28 21 -3 3 28 -17 30 -11 60 7 32 8 -13 10 -12 10 3 0 9
6 17 14 17 10 0 14 -20 15 -77 2 -82 5 -93 25 -93 9 0 11 15 8 55 -2 30 -1 85
3 122 6 62 10 70 47 105 22 21 44 35 49 32 5 -3 8 -2 7 3 -1 4 16 28 40 52 23
24 42 40 42 35 0 -5 5 -1 11 8 13 23 35 23 60 -1 20 -18 20 -18 -10 -24 -17
-4 -32 -14 -36 -26 -3 -10 -15 -21 -26 -24 -12 -3 -18 -10 -15 -16 3 -5 -1
-16 -9 -24 -16 -16 -21 -47 -7 -47 4 0 13 5 20 12 9 9 12 8 12 -7 0 -15 3 -16
12 -7 16 16 25 15 32 -4 3 -8 2 -12 -4 -9 -10 6 -14 -44 -12 -140 0 -22 -4
-45 -10 -52 -17 -21 -1 -43 31 -43 16 0 33 5 36 10 3 6 19 10 36 10 16 0 29 5
29 11 0 6 8 8 18 5 9 -3 31 -2 47 3 17 5 25 10 18 10 -6 1 -19 4 -29 8 -12 4
-15 3 -10 -5 9 -15 4 -15 -29 0 -25 11 -35 38 -14 38 8 0 8 4 1 12 -5 8 -6 22
-1 33 4 11 8 38 8 61 1 22 4 44 9 48 4 4 7 15 8 24 1 10 2 31 3 47 1 23 3 27
11 15 8 -12 10 -10 10 10 0 14 16 58 36 99 65 134 115 255 135 323 24 86 24
122 -1 45 -20 -62 -48 -111 -99 -167 -58 -64 -81 -94 -81 -107 0 -7 -9 -17
-20 -23 -18 -9 -18 -8 -9 19 6 16 21 39 35 52 27 26 31 47 9 55 -8 4 -15 10
-15 16 0 5 4 7 9 3 17 -10 83 240 85 322 1 40 -4 57 -19 72 l-20 20 0 -43 c0
-24 3 -42 7 -40 9 6 -7 -44 -27 -83 -9 -18 -20 -33 -24 -33 -4 0 -14 -11 -21
-25 -7 -13 -17 -22 -22 -19 -4 3 -14 -8 -21 -25 -7 -17 -16 -28 -20 -25 -4 4
-13 2 -20 -4 -11 -9 -16 -6 -26 14 -10 23 -9 26 8 31 17 4 32 29 35 58 1 6 7
16 15 24 11 12 11 16 -3 26 -18 14 -21 36 -7 50 5 6 31 51 57 100 25 50 50 95
54 100 4 6 10 26 14 46 8 43 18 54 66 66 24 7 44 23 68 56 31 43 33 52 34 125
1 124 -19 182 -64 182 -20 0 -19 -4 -24 125 -2 59 -11 104 -35 170 -27 77 -40
98 -86 144 -53 51 -57 53 -99 48 -24 -2 -44 -1 -44 4 0 4 -20 20 -44 34 -40
24 -56 26 -157 28 -62 1 -133 -3 -157 -9z m231 -446 c-12 -12 -31 -22 -42 -23
-10 -1 -26 -7 -34 -13 -13 -11 -15 -9 -13 11 1 16 6 23 17 20 8 -3 21 3 28 11
8 9 25 16 39 16 l26 0 -21 -22z m-122 -44 c3 -18 1 -41 -6 -54 -15 -29 -26
-13 -20 31 2 18 -1 39 -8 47 -9 12 -8 14 8 11 12 -3 22 -16 26 -35z m363 -59
c5 -22 4 -26 -4 -15 -5 8 -10 24 -10 34 0 26 6 18 14 -19z m148 -59 c3 2 11
-3 18 -11 7 -9 9 -15 4 -14 -19 3 -34 -1 -34 -11 0 -5 8 -10 18 -10 10 0 27
-7 38 -16 19 -15 19 -16 -1 -9 -48 18 -65 18 -59 1 3 -9 2 -16 -4 -16 -5 0
-12 17 -16 38 -9 59 -8 64 13 53 10 -6 21 -8 23 -5z m-195 -33 c-3 -10 -5 -4
-5 12 0 17 2 24 5 18 2 -7 2 -21 0 -30z m39 22 c-3 -8 -1 -15 4 -15 5 0 10 8
13 18 3 13 7 10 17 -13 7 -16 14 -33 14 -37 1 -3 4 -10 9 -14 17 -17 4 -134
-15 -134 -15 0 -47 -43 -48 -62 0 -9 5 -20 10 -23 8 -5 8 -11 0 -20 -7 -8 -7
-15 -1 -19 5 -4 12 -2 16 4 3 5 13 10 22 10 15 0 14 -2 0 -18 -10 -10 -14 -21
-11 -25 9 -9 -6 -48 -17 -42 -5 3 -7 0 -4 -7 5 -13 -36 -38 -64 -38 -14 0 -14
-1 -1 -10 9 -6 18 -6 24 0 13 13 26 13 26 0 0 -17 -25 -22 -55 -10 l-28 11 22
15 c17 13 20 19 10 30 -8 10 -8 14 0 14 6 0 11 7 11 16 0 13 -3 13 -17 -4 -13
-15 -23 -18 -38 -12 -18 7 -18 9 -3 15 9 4 15 12 12 19 -3 7 2 18 10 25 20 16
11 39 -29 77 -25 23 -33 38 -32 62 1 18 7 32 14 32 21 0 80 59 93 92 24 66 30
78 36 78 3 0 4 -7 0 -15z m-346 -46 c0 -6 12 -26 27 -46 22 -29 25 -38 15 -54
-7 -10 -9 -20 -5 -20 5 -1 21 -3 37 -5 16 -2 33 -9 37 -16 4 -7 11 -9 15 -6 8
8 34 -16 34 -31 0 -6 15 -18 33 -27 43 -22 67 -44 67 -62 0 -12 -7 -9 -27 9
-30 28 -73 35 -85 16 -6 -9 -8 -9 -8 1 0 6 -7 12 -15 12 -8 0 -15 -4 -15 -10
0 -5 -5 -10 -11 -10 -5 0 -7 5 -4 10 3 6 -4 10 -17 11 l-23 0 23 9 c24 10 26
17 13 39 -6 9 -18 12 -35 7 -14 -3 -37 -9 -50 -12 -15 -4 -31 0 -44 12 -23 19
-22 30 4 112 8 24 12 48 9 53 -4 5 -3 14 0 19 7 12 25 4 25 -11z m289 -30
c-24 -46 -59 -66 -43 -25 3 9 11 13 17 9 6 -4 8 0 4 11 -4 9 -3 15 2 12 5 -3
12 1 15 10 4 9 9 14 12 11 3 -3 0 -16 -7 -28z m151 -23 c0 -3 -4 -8 -10 -11
-5 -3 -10 -1 -10 4 0 6 5 11 10 11 6 0 10 -2 10 -4z m90 -37 c0 -14 -20 -10
-20 4 -1 6 -12 -8 -25 -33 l-24 -45 -1 46 c0 57 14 73 46 52 13 -8 24 -19 24
-24z m-400 11 c11 -21 4 -25 -24 -14 -8 3 -12 12 -9 20 7 20 20 17 33 -6z
m396 -66 c-9 -8 -16 -20 -16 -25 0 -5 -9 -9 -20 -9 -11 0 -20 -4 -20 -10 0 -5
-4 -10 -10 -10 -5 0 -10 7 -10 15 0 14 20 20 45 15 6 -1 7 2 3 6 -10 10 11 34
29 34 12 0 12 -3 -1 -16z m-6 -64 c-20 -13 -33 -13 -25 0 3 6 14 10 23 10 15
0 15 -2 2 -10z m-352 -55 c12 -3 22 -11 22 -16 0 -5 11 -9 25 -9 14 0 25 -3
25 -7 0 -5 -42 -9 -94 -11 -83 -3 -95 -1 -104 15 -9 16 -5 19 31 29 42 12 51
12 95 -1z m50 -92 c2 -22 11 -45 22 -56 11 -10 20 -22 20 -27 0 -5 8 -7 18 -3
14 5 15 3 5 -8 -7 -7 -13 -21 -13 -30 0 -10 -5 -21 -12 -25 -7 -4 -8 -3 -4 4
4 7 3 12 -2 12 -5 0 -15 -11 -22 -25 -9 -16 -16 -21 -20 -14 -4 6 -10 0 -14
-15 -3 -14 -13 -26 -20 -26 -8 0 -21 -2 -29 -6 -8 -3 -27 6 -43 19 -16 14 -37
26 -48 28 -10 2 -23 14 -27 27 -7 19 -4 25 16 34 26 12 35 48 11 48 -17 0 -29
27 -15 35 5 4 6 11 3 17 -10 16 17 28 71 29 28 0 59 4 70 9 30 13 31 13 33
-27z m17 -283 c13 -6 15 -9 5 -9 -8 0 -22 4 -30 9 -18 12 -2 12 25 0z m-10
-35 c0 -17 -6 -20 -37 -17 -27 3 -47 -3 -69 -19 l-31 -22 17 32 c18 36 46 51
90 48 23 -1 30 -7 30 -22z m-625 -45 c0 -5 -4 -10 -10 -10 -5 0 -10 5 -10 10
0 6 5 10 10 10 6 0 10 -4 10 -10z m610 -74 c0 -15 -29 -30 -39 -20 -3 3 3 12
13 20 24 17 26 17 26 0z m-371 -80 c12 -21 30 -61 41 -88 10 -27 30 -58 44
-69 15 -11 23 -25 20 -31 -8 -13 -49 35 -70 82 -8 19 -26 59 -40 88 -35 77
-33 87 5 18z m517 -51 c-10 -14 -26 -60 -37 -103 -21 -82 -39 -114 -39 -70 0
15 7 33 15 42 9 8 15 18 15 21 -6 26 41 135 57 135 3 0 -2 -11 -11 -25z m-762
-68 c-3 -9 -10 -17 -15 -17 -12 0 -11 17 1 25 6 4 7 12 4 18 -5 9 -4 9 5 1 6
-6 9 -18 5 -27z m221 15 c-3 -3 -11 0 -18 7 -9 10 -8 11 6 5 10 -3 15 -9 12
-12z m245 -76 c0 -9 -11 -23 -24 -31 -22 -15 -27 -15 -57 0 -24 13 -29 19 -18
26 9 5 10 9 2 9 -20 0 2 54 27 67 22 11 26 9 47 -22 13 -19 23 -41 23 -49z
m-166 -99 c25 -41 46 -83 46 -95 0 -21 -1 -21 -20 -5 -11 10 -20 25 -20 35 0
10 -4 18 -10 18 -5 0 -10 6 -10 14 0 8 -9 35 -20 60 -10 25 -18 46 -15 46 2 0
24 -33 49 -73z m26 28 c14 -19 14 -19 -2 -6 -10 7 -18 18 -18 24 0 6 1 8 3 6
1 -2 9 -13 17 -24z m61 -46 c7 -18 8 -34 3 -39 -5 -5 -18 14 -30 46 -20 49
-20 53 -4 39 10 -9 24 -30 31 -46z m-306 1 c-5 -8 -11 -8 -17 -2 -6 6 -7 16
-3 22 5 8 11 8 17 2 6 -6 7 -16 3 -22z m-5 -24 c0 -3 -4 -8 -10 -11 -5 -3 -10
-1 -10 4 0 6 5 11 10 11 6 0 10 -2 10 -4z m632 -81 c3 -14 1 -25 -3 -25 -5 0
-9 11 -9 25 0 14 2 25 4 25 2 0 6 -11 8 -25z m-25 -7 c-3 -8 -6 -5 -6 6 -1 11
2 17 5 13 3 -3 4 -12 1 -19z m-327 -43 c0 -8 -4 -15 -10 -15 -5 0 -10 7 -10
15 0 8 5 15 10 15 6 0 10 -7 10 -15z m299 -1 c6 4 11 0 11 -9 0 -11 -5 -15
-14 -12 -10 4 -16 -2 -19 -16 -2 -12 -5 -4 -5 18 -1 26 1 35 7 26 5 -7 14 -10
20 -7z"/>
<path d="M1460 1335 c7 -9 15 -13 17 -11 7 7 -7 26 -19 26 -6 0 -6 -6 2 -15z"/>
<path d="M1490 1290 c0 -5 5 -10 10 -10 6 0 10 5 10 10 0 6 -4 10 -10 10 -5 0
-10 -4 -10 -10z"/>
<path d="M1501 1254 c0 -11 3 -14 6 -6 3 7 2 16 -1 19 -3 4 -6 -2 -5 -13z"/>
<path d="M117 1814 c-10 -20 -15 -39 -12 -42 3 -3 5 0 5 6 0 16 37 15 43 0 2
-7 7 -10 11 -6 4 3 -1 22 -11 42 l-19 37 -17 -37z m23 -4 c0 -5 -5 -10 -11
-10 -5 0 -7 5 -4 10 3 6 8 10 11 10 2 0 4 -4 4 -10z"/>
<path d="M191 1808 c0 -29 3 -37 8 -25 6 17 8 17 20 3 16 -19 36 -22 24 -3 -4
6 -8 23 -8 37 0 18 -6 26 -22 28 -21 3 -23 -1 -22 -40z m29 22 c0 -5 -4 -10
-10 -10 -5 0 -10 5 -10 10 0 6 5 10 10 10 6 0 10 -4 10 -10z"/>
<path d="M268 1843 c6 -2 12 -20 12 -39 0 -19 5 -34 10 -34 6 0 10 15 10 34 0
19 6 37 13 39 6 3 -4 5 -23 5 -19 0 -29 -2 -22 -5z"/>
<path d="M330 1823 c0 -16 5 -35 10 -43 7 -11 10 -4 10 28 0 23 -4 42 -10 42
-5 0 -10 -12 -10 -27z"/>
<path d="M380 1835 c-25 -30 19 -79 52 -59 9 6 5 10 -12 14 -34 8 -34 42 0 51
l25 7 -26 1 c-15 1 -32 -6 -39 -14z"/>
<path d="M462 1813 c-2 -37 1 -43 18 -43 11 0 20 5 20 10 0 6 -6 10 -14 10 -9
0 -16 13 -19 33 -3 28 -4 26 -5 -10z"/>
<path d="M520 1815 c0 -35 22 -57 38 -40 4 4 1 10 -5 12 -7 3 -13 9 -13 14 0
6 5 7 10 4 6 -3 10 -2 10 4 0 5 -6 12 -12 14 -10 4 -9 8 2 16 12 9 11 11 -7
11 -20 0 -23 -5 -23 -35z"/>
<path d="M593 1834 c-4 -10 0 -20 10 -26 21 -11 22 -32 2 -24 -8 3 -15 1 -15
-4 0 -14 37 -12 46 2 4 6 -3 19 -16 30 -18 14 -19 18 -6 18 10 0 14 5 11 10
-9 15 -25 12 -32 -6z"/>
<path d="M229 1723 c-11 -12 -9 -18 11 -35 25 -19 25 -20 3 -15 -23 5 -31 -7
-13 -18 15 -10 50 5 50 20 0 8 -10 20 -22 26 -21 11 -22 13 -4 19 17 6 17 7 3
13 -8 3 -21 -1 -28 -10z"/>
<path d="M390 1721 c-11 -21 -14 -22 -22 -8 -5 10 -13 17 -17 17 -13 0 -22
-63 -11 -74 7 -7 10 -2 10 15 1 21 2 22 11 7 5 -10 14 -18 19 -18 5 0 11 8 13
18 4 16 5 16 6 0 0 -10 6 -18 11 -18 12 0 12 36 1 65 -8 19 -8 19 -21 -4z"/>
<path d="M441 1704 c-1 -33 3 -43 18 -47 11 -2 24 0 30 6 14 14 14 67 1 67 -5
0 -10 -13 -10 -30 0 -42 -14 -38 -27 8 l-10 37 -2 -41z"/>
<path d="M100 1696 c0 -35 20 -63 20 -29 1 17 1 17 14 1 19 -26 23 -22 22 20
-2 32 -5 37 -29 40 -25 3 -27 1 -27 -32z m35 14 c3 -5 1 -10 -4 -10 -6 0 -11
5 -11 10 0 6 2 10 4 10 3 0 8 -4 11 -10z"/>
<path d="M291 1713 c2 -32 15 -68 21 -58 8 14 -2 75 -13 75 -5 0 -9 -8 -8 -17z"/>
<path d="M520 1695 c0 -30 3 -35 23 -34 12 0 16 3 10 6 -7 2 -13 18 -13 34 0
16 -4 29 -10 29 -5 0 -10 -16 -10 -35z"/>
<path d="M592 1697 c-16 -45 -15 -49 7 -35 15 9 23 9 35 -1 20 -17 20 -10 2
34 -19 44 -29 44 -44 2z"/>
<path d="M668 1723 c6 -2 12 -20 12 -39 0 -47 17 -43 22 6 3 37 2 40 -22 39
-14 0 -19 -3 -12 -6z"/>
<path d="M67 1683 c-7 -11 10 -40 18 -31 4 4 3 14 -3 24 -5 9 -12 12 -15 7z"/>
<path d="M178 1492 c5 -34 30 -39 28 -6 0 12 -4 20 -8 17 -5 -2 -8 1 -8 6 0 6
-4 11 -8 11 -5 0 -7 -13 -4 -28z"/>
<path d="M270 1509 c0 -7 8 -18 18 -26 16 -13 15 -13 -7 -7 -16 4 -21 3 -17
-5 11 -17 46 -13 46 4 0 9 -7 18 -16 22 -13 5 -13 7 -2 14 10 7 9 9 -4 9 -10
0 -18 -5 -18 -11z"/>
<path d="M562 1494 c2 -15 10 -29 18 -31 12 -4 13 -3 1 5 -8 6 -11 17 -8 26 3
8 1 18 -4 22 -7 4 -9 -4 -7 -22z"/>
<path d="M123 1499 c-14 -14 -6 -39 12 -39 8 0 17 5 21 12 5 8 2 9 -9 5 -11
-4 -17 -1 -17 9 0 9 5 12 12 8 7 -4 8 -3 4 4 -9 15 -9 15 -23 1z"/>
<path d="M333 1494 c-8 -21 13 -42 28 -27 13 13 5 43 -11 43 -6 0 -13 -7 -17
-16z"/>
<path d="M391 1483 c2 -24 2 -25 6 -5 2 12 9 20 14 17 5 -4 9 -1 9 4 0 6 -7
11 -15 11 -10 0 -15 -9 -14 -27z"/>
<path d="M440 1490 c0 -24 15 -27 24 -4 9 22 8 24 -9 24 -8 0 -15 -9 -15 -20z"/>
<path d="M500 1496 c0 -9 0 -19 0 -23 0 -5 8 -8 19 -9 15 -1 18 3 12 19 -10
26 -31 34 -31 13z"/>
<path d="M614 1496 c-9 -24 12 -44 28 -28 9 10 8 16 -5 29 -15 15 -17 15 -23
-1z m26 -17 c0 -5 -4 -9 -10 -9 -5 0 -10 7 -10 16 0 8 5 12 10 9 6 -3 10 -10
10 -16z"/>
<path d="M32 1480 c0 -14 2 -19 5 -12 2 6 2 18 0 25 -3 6 -5 1 -5 -13z"/>
<path d="M80 1480 c0 -11 4 -20 9 -20 5 0 7 9 4 20 -3 11 -7 20 -9 20 -2 0 -4
-9 -4 -20z"/>
<path d="M2513 1485 c-7 -8 -13 -22 -13 -32 0 -14 -2 -15 -9 -4 -5 8 -7 21 -4
30 3 10 -3 8 -15 -7 -12 -12 -24 -22 -29 -21 -25 6 -43 -15 -43 -52 0 -32 3
-39 20 -39 41 0 18 -20 -30 -26 -43 -6 -50 -9 -45 -25 4 -13 1 -19 -9 -19 -22
0 -20 -17 4 -30 17 -9 19 -18 13 -78 -3 -37 -12 -77 -19 -89 -8 -12 -14 -32
-14 -43 0 -16 -4 -20 -19 -15 -11 3 -24 -1 -32 -11 -11 -14 -10 -17 4 -26 23
-13 13 -28 -15 -20 -17 4 -20 2 -15 -11 4 -11 2 -14 -9 -10 -7 3 -14 9 -14 15
0 5 -5 6 -11 3 -6 -5 -3 -13 10 -22 12 -8 21 -21 21 -30 0 -14 -2 -14 -19 1
-16 15 -19 15 -31 1 -11 -13 -10 -18 6 -30 17 -13 17 -14 2 -15 -9 0 -18 5
-20 11 -7 20 -33 -2 -52 -42 -14 -30 -15 -44 -7 -52 6 -6 11 -7 11 -2 0 4 8 1
18 -7 9 -9 42 -23 72 -33 69 -22 152 -63 165 -82 22 -30 155 308 141 360 -2 9
-1 17 4 17 4 0 11 17 15 38 10 54 17 312 9 331 -10 22 -11 28 -13 56 -1 28
-10 31 -28 10z m12 -105 c3 -5 1 -10 -4 -10 -6 0 -11 5 -11 10 0 6 2 10 4 10
3 0 8 -4 11 -10z m-125 -80 c0 -5 -2 -10 -4 -10 -3 0 -8 5 -11 10 -3 6 -1 10
4 10 6 0 11 -4 11 -10z"/>
<path d="M34 1405 c-4 -8 -4 -22 0 -30 7 -20 56 -20 56 0 0 8 -8 15 -17 15
-16 0 -16 -2 -3 -11 12 -8 11 -10 -5 -7 -24 4 -27 34 -3 32 10 -1 15 2 12 7
-8 14 -34 10 -40 -6z"/>
<path d="M248 1402 c-20 -2 -28 -9 -28 -23 0 -24 20 -26 21 -1 0 14 2 14 9 -3
7 -17 9 -17 9 -2 1 9 5 17 10 17 5 0 12 -8 14 -17 4 -14 5 -13 6 4 1 26 -5 30
-41 25z"/>
<path d="M316 1403 c-3 -4 0 -13 7 -21 9 -13 9 -14 0 -8 -7 4 -13 2 -13 -3 0
-6 9 -11 20 -11 13 0 20 7 20 19 0 19 -23 35 -34 24z"/>
<path d="M383 1403 c-7 -3 -13 -14 -13 -25 0 -20 14 -17 16 3 3 22 7 22 14 -1
7 -23 8 -23 9 -3 1 24 -8 33 -26 26z"/>
<path d="M111 1383 c-1 -17 5 -23 19 -23 14 0 20 6 19 23 -1 16 -2 18 -6 5 -2
-10 -8 -18 -13 -18 -5 0 -11 8 -13 18 -4 13 -5 11 -6 -5z"/>
<path d="M174 1380 c0 -11 5 -20 11 -20 6 0 11 9 12 20 1 11 -4 20 -10 20 -7
0 -13 -9 -13 -20z"/>
<path d="M2358 1353 c6 -2 18 -2 25 0 6 3 1 5 -13 5 -14 0 -19 -2 -12 -5z"/>
<path d="M90 1211 c0 -12 4 -20 9 -17 5 4 12 0 14 -6 4 -10 6 -10 6 0 1 7 6
10 11 7 6 -3 10 1 10 9 0 22 -20 31 -20 9 -1 -17 -2 -17 -15 1 -15 19 -15 19
-15 -3z"/>
<path d="M370 1210 c0 -12 7 -20 18 -20 14 0 15 2 2 10 -13 9 -13 11 0 20 13
8 12 10 -2 10 -11 0 -18 -8 -18 -20z"/>
<path d="M422 1210 c0 -14 2 -19 5 -12 2 6 2 18 0 25 -3 6 -5 1 -5 -13z"/>
<path d="M154 1209 c-3 -6 -1 -16 5 -22 9 -9 10 -7 5 7 -6 15 -4 17 6 11 9 -5
11 -4 6 3 -9 15 -13 15 -22 1z"/>
<path d="M207 1213 c-10 -9 -9 -23 1 -23 5 0 9 7 9 15 0 17 -1 18 -10 8z"/>
<path d="M260 1206 c0 -20 17 -29 26 -15 5 8 3 9 -6 4 -10 -6 -12 -4 -7 8 3
10 2 17 -3 17 -6 0 -10 -6 -10 -14z"/>
<path d="M301 1203 c0 -12 2 -14 6 -4 5 11 7 11 15 0 8 -12 9 -12 6 0 -6 22
-28 25 -27 4z"/>
<path d="M446 1205 c4 -8 8 -15 10 -15 2 0 4 7 4 15 0 8 -4 15 -10 15 -5 0 -7
-7 -4 -15z"/>
<path d="M481 1202 c-1 -28 23 -25 27 4 2 14 1 16 -6 5 -8 -11 -10 -11 -15 0
-3 8 -6 4 -6 -9z"/>
<path d="M11 1194 c0 -11 3 -14 6 -6 3 7 2 16 -1 19 -3 4 -6 -2 -5 -13z"/>
<path d="M81 1134 c0 -11 3 -14 6 -6 3 7 2 16 -1 19 -3 4 -6 -2 -5 -13z"/>
<path d="M111 1134 c0 -11 3 -14 6 -6 3 7 2 16 -1 19 -3 4 -6 -2 -5 -13z"/>
<path d="M197 1137 c-3 -8 1 -14 9 -14 16 0 19 13 5 21 -5 3 -11 0 -14 -7z"/>
<path d="M230 1133 c0 -15 2 -16 10 -3 6 10 10 11 10 3 0 -7 5 -13 10 -13 6 0
10 7 10 15 0 8 -9 15 -20 15 -12 0 -20 -7 -20 -17z"/>
<path d="M300 1139 c0 -5 4 -8 9 -5 5 4 11 1 13 -6 3 -8 7 -6 11 5 5 12 1 17
-13 17 -11 0 -20 -5 -20 -11z"/>
<path d="M360 1141 c0 -6 4 -13 10 -16 6 -3 7 1 4 9 -7 18 -14 21 -14 7z"/>
<path d="M160 1130 c0 -5 5 -10 10 -10 6 0 10 5 10 10 0 6 -4 10 -10 10 -5 0
-10 -4 -10 -10z"/>
<path d="M105 1040 l-20 -9 20 -1 c11 -1 15 -4 9 -6 -15 -6 -6 -44 10 -45 69
-5 533 2 494 8 -16 2 -29 9 -29 14 -1 5 -3 14 -4 19 -1 6 -3 15 -4 20 -1 12
-447 12 -476 0z"/>
<path d="M1751 895 c1 -19 18 -51 18 -35 0 8 -4 22 -9 30 -5 8 -9 11 -9 5z"/>
<path d="M1791 817 c-1 -54 -37 -182 -75 -269 -11 -25 15 -24 36 1 36 42 76
308 49 325 -5 3 -9 -22 -10 -57z"/>
<path d="M1827 865 c3 -8 9 -13 13 -10 5 3 13 -7 18 -22 9 -25 10 -26 11 -5 1
33 15 27 30 -13 13 -37 6 -104 -13 -118 -8 -6 -8 -10 1 -13 14 -6 5 -75 -11
-86 -7 -5 -6 -8 3 -8 9 0 12 -9 8 -32 -25 -144 -37 -249 -32 -279 2 -20 2 -39
-2 -43 -4 -3 -8 -16 -10 -29 -2 -12 -8 -26 -15 -32 -7 -7 -9 4 -6 40 5 50 5
50 -8 18 -19 -44 -26 -41 -18 7 5 29 3 40 -6 40 -7 0 -10 -8 -7 -20 4 -16 0
-20 -21 -21 -15 0 -21 -3 -14 -6 19 -7 14 -33 -7 -33 -25 0 -36 50 -14 67 12
9 14 27 11 81 -2 49 -1 66 7 56 7 -11 10 -3 10 31 0 25 -3 45 -7 45 -5 0 -8
-7 -8 -15 0 -9 -6 -12 -15 -9 -8 4 -15 1 -15 -6 0 -6 -4 -8 -10 -5 -5 3 -12
-6 -16 -20 -3 -14 -10 -25 -15 -25 -5 0 -9 -11 -9 -24 0 -14 -5 -37 -10 -52
-7 -19 -7 -30 1 -40 9 -11 8 -14 -5 -14 -17 0 -19 -6 -16 -62 1 -23 -3 -38
-10 -38 -6 0 -8 -5 -5 -10 13 -20 -6 -90 -23 -91 -12 0 -9 -3 7 -10 28 -11
100 6 107 26 3 8 12 11 19 9 8 -3 22 -1 32 5 16 9 15 10 -9 11 -16 0 -28 5
-28 10 0 6 12 8 28 4 21 -4 24 -3 12 5 -13 9 -13 11 3 11 9 0 17 -7 17 -15 0
-19 10 -19 38 1 13 9 19 20 15 27 -5 9 -3 9 8 0 11 -9 20 -8 39 2 21 11 24 19
22 53 -2 22 2 59 9 83 7 24 14 69 15 99 1 30 5 136 9 235 8 201 2 235 -39 235
-14 0 -36 4 -50 10 -20 7 -24 6 -19 -5z m-110 -527 c-2 -13 -4 -5 -4 17 -1 22
1 32 4 23 2 -10 2 -28 0 -40z m60 -130 c-3 -8 -6 -5 -6 6 -1 11 2 17 5 13 3
-3 4 -12 1 -19z m80 -40 c-3 -8 -6 -5 -6 6 -1 11 2 17 5 13 3 -3 4 -12 1 -19z
m-147 -41 c0 -5 -4 -5 -10 -2 -5 3 -10 14 -10 23 0 15 2 15 10 2 5 -8 10 -19
10 -23z m20 23 c0 -5 -4 -10 -10 -10 -5 0 -10 5 -10 10 0 6 5 10 10 10 6 0 10
-4 10 -10z m-33 -62 c-3 -8 -6 -5 -6 6 -1 11 2 17 5 13 3 -3 4 -12 1 -19z"/>
<path d="M435 850 c-3 -5 -1 -10 4 -10 6 0 11 5 11 10 0 6 -2 10 -4 10 -3 0
-8 -4 -11 -10z"/>
<path d="M2041 843 c-1 -12 4 -25 9 -28 12 -7 12 2 0 30 -8 19 -9 19 -9 -2z"/>
<path d="M588 839 c-8 -23 4 -59 19 -59 12 0 13 3 4 13 -6 8 -8 16 -5 20 3 3
2 13 -4 23 -7 13 -10 14 -14 3z"/>
<path d="M230 814 c-14 -15 -5 -34 16 -34 8 0 14 -4 14 -10 0 -5 -7 -7 -15 -4
-8 4 -15 1 -15 -6 0 -6 10 -10 23 -8 31 4 38 63 8 71 -11 3 -25 -1 -31 -9z
m30 -14 c0 -5 -4 -10 -10 -10 -5 0 -10 5 -10 10 0 6 5 10 10 10 6 0 10 -4 10
-10z"/>
<path d="M294 816 c-8 -22 4 -36 29 -35 21 0 21 1 2 9 -18 8 -18 9 -2 9 10 1
17 7 15 14 -7 18 -37 21 -44 3z"/>
<path d="M355 821 c-3 -5 0 -13 6 -17 8 -4 7 -9 -2 -15 -10 -6 -8 -9 8 -9 18
0 22 5 21 25 -2 25 -21 34 -33 16z"/>
<path d="M430 818 c0 -7 5 -20 10 -28 8 -12 10 -9 10 13 0 15 -4 27 -10 27 -5
0 -10 -6 -10 -12z"/>
<path d="M470 815 c0 -8 6 -15 13 -15 8 0 7 -4 -3 -10 -13 -8 -13 -10 2 -10
20 0 32 16 18 25 -6 4 -8 11 -5 16 4 5 -1 9 -9 9 -9 0 -16 -7 -16 -15z"/>
<path d="M520 805 c0 -22 4 -26 23 -23 14 2 22 10 22 23 0 13 -8 21 -22 23
-19 3 -23 -1 -23 -23z m30 5 c0 -5 -5 -10 -11 -10 -5 0 -7 5 -4 10 3 6 8 10
11 10 2 0 4 -4 4 -10z"/>
<path d="M628 803 c5 -26 5 -26 13 -5 10 27 16 27 37 1 20 -23 55 -17 50 10
-2 12 -16 17 -54 18 -51 3 -51 2 -46 -24z m82 7 c0 -5 -4 -10 -10 -10 -5 0
-10 5 -10 10 0 6 5 10 10 10 6 0 10 -4 10 -10z"/>
<path d="M1958 800 c2 -16 11 -35 18 -41 11 -9 14 -9 10 2 -2 8 -7 26 -10 42
-8 37 -24 35 -18 -3z"/>
<path d="M97 814 c-11 -11 12 -42 28 -40 9 1 15 5 15 9 0 4 0 14 0 22 0 15
-31 21 -43 9z m33 -14 c0 -5 -4 -10 -10 -10 -5 0 -10 5 -10 10 0 6 5 10 10 10
6 0 10 -4 10 -10z"/>
<path d="M160 800 c0 -25 20 -27 20 -2 1 15 2 15 15 -2 15 -19 15 -19 15 2 0
17 -6 22 -25 22 -18 0 -25 -5 -25 -20z"/>
<path d="M2019 793 c0 -5 -2 -28 -5 -53 -10 -97 -9 -327 2 -375 8 -34 13 -41
13 -23 1 35 20 83 29 74 11 -12 12 -76 0 -76 -6 0 -3 -12 7 -26 9 -15 12 -24
7 -20 -6 3 -13 3 -16 -2 -3 -5 2 -9 11 -9 9 0 34 17 56 38 35 34 38 41 26 56
-11 13 -11 15 -1 9 10 -6 11 -4 4 10 -15 31 -41 116 -48 162 -4 23 -10 42 -15
42 -5 0 -9 15 -9 34 0 19 -4 37 -9 40 -5 4 -12 25 -16 49 -9 60 -15 77 -26 77
-5 0 -9 -3 -10 -7z m41 -345 c0 -16 -3 -19 -11 -11 -6 6 -8 16 -5 22 11 17 16
13 16 -11z"/>
<path d="M1883 745 c0 -22 2 -30 4 -17 2 12 2 30 0 40 -3 9 -5 -1 -4 -23z"/>
<path d="M2090 763 c0 -5 5 -15 10 -23 8 -12 10 -11 10 8 0 12 -4 22 -10 22
-5 0 -10 -3 -10 -7z"/>
<path d="M270 730 c0 -5 5 -10 10 -10 6 0 10 5 10 10 0 6 -4 10 -10 10 -5 0
-10 -4 -10 -10z"/>
<path d="M2116 723 c-6 -14 -5 -15 5 -6 7 7 10 15 7 18 -3 3 -9 -2 -12 -12z"/>
<path d="M234 717 c-8 -22 -1 -50 13 -54 8 -3 11 6 8 27 -5 39 -12 49 -21 27z"/>
<path d="M467 718 c-6 -17 10 -58 22 -58 5 0 8 12 6 28 -2 15 -4 30 -4 35 -1
12 -18 8 -24 -5z"/>
<path d="M2155 721 c3 -5 1 -12 -5 -16 -5 -3 -9 -23 -9 -43 l2 -37 7 35 c6 27
8 15 9 -50 2 -47 5 -79 8 -72 10 26 42 -39 36 -71 -4 -21 -3 -28 5 -23 7 4 12
2 12 -3 0 -6 -4 -11 -10 -11 -5 0 -10 -7 -10 -16 0 -12 7 -8 23 12 12 16 21
32 19 37 -1 5 2 6 6 3 16 -10 44 31 48 69 1 19 -1 33 -6 30 -5 -3 -10 9 -12
27 l-3 33 -6 -37 c-2 -20 -1 -34 3 -32 9 6 2 -65 -7 -74 -3 -3 -5 10 -5 29 0
19 -7 47 -15 63 -8 15 -15 39 -15 53 0 13 -4 21 -10 18 -5 -3 -10 1 -10 9 0 9
4 16 9 16 6 0 6 12 0 30 -14 39 -27 38 -32 -2 l-4 -33 -1 33 c-1 22 -7 32 -18
32 -8 0 -13 -4 -9 -9z"/>
<path d="M154 698 c-4 -6 -2 -14 4 -16 7 -2 10 -8 6 -13 -3 -5 -1 -9 5 -9 15
0 23 18 11 25 -6 4 -8 11 -5 16 4 5 2 9 -4 9 -5 0 -13 -5 -17 -12z"/>
<path d="M200 686 c0 -14 5 -26 10 -26 6 0 10 9 10 19 0 11 -4 23 -10 26 -6 4
-10 -5 -10 -19z"/>
<path d="M270 685 c0 -14 5 -25 10 -25 6 0 10 11 10 25 0 14 -4 25 -10 25 -5
0 -10 -11 -10 -25z"/>
<path d="M304 695 c-4 -9 -2 -21 4 -27 16 -16 47 -5 47 17 0 26 -42 34 -51 10z"/>
<path d="M370 685 c0 -31 17 -33 23 -2 4 22 4 22 15 -3 l11 -25 0 28 c1 22 -3
27 -24 27 -20 0 -25 -5 -25 -25z"/>
<path d="M2337 689 c7 -7 15 -10 18 -7 3 3 -2 9 -12 12 -14 6 -15 5 -6 -5z"/>
<path d="M2300 671 c0 -6 5 -13 10 -16 6 -3 10 1 10 9 0 9 -4 16 -10 16 -5 0
-10 -4 -10 -9z"/>
<path d="M2300 629 c0 -5 5 -7 10 -4 6 3 10 8 10 11 0 2 -4 4 -10 4 -5 0 -10
-5 -10 -11z"/>
<path d="M1797 575 c3 -22 7 -42 9 -44 8 -9 2 45 -6 64 -7 14 -8 8 -3 -20z"/>
<path d="M1684 506 c-10 -8 -16 -18 -11 -22 4 -4 7 -2 7 4 0 6 6 9 13 6 8 -3
20 2 27 11 10 12 10 15 -2 15 -8 0 -23 -6 -34 -14z"/>
<path d="M2152 500 c0 -14 2 -19 5 -12 2 6 2 18 0 25 -3 6 -5 1 -5 -13z"/>
<path d="M1801 304 c0 -11 3 -14 6 -6 3 7 2 16 -1 19 -3 4 -6 -2 -5 -13z"/>
<path d="M847 281 c-4 -17 -2 -18 14 -8 22 14 25 27 5 27 -7 0 -16 -9 -19 -19z"/>
<path d="M870 260 c-13 -8 -12 -10 3 -10 9 0 17 5 17 10 0 12 -1 12 -20 0z"/>
<path d="M848 223 c6 -2 18 -2 25 0 6 3 1 5 -13 5 -14 0 -19 -2 -12 -5z"/>
<path d="M727 139 c7 -7 15 -10 18 -7 3 3 -2 9 -12 12 -14 6 -15 5 -6 -5z"/>
<path d="M1555 100 c-3 -5 -1 -10 4 -10 6 0 11 5 11 10 0 6 -2 10 -4 10 -3 0
-8 -4 -11 -10z"/>
</g>
</svg>
